<?xml version="1.0" encoding="utf-8"?>
<!-- Generator: Adobe Illustrator 27.9.0, SVG Export Plug-In . SVG Version: 6.00 Build 0)  -->
<svg version="1.1" xmlns="http://www.w3.org/2000/svg" xmlns:xlink="http://www.w3.org/1999/xlink" x="0px" y="0px"
	 viewBox="0 0 512 512" style="enable-background:new 0 0 512 512;" xml:space="preserve">
<style type="text/css">
	.st0{display:none;}
	.st1{fill:#A7A9AC;}
	.st2{fill:#F7941D;stroke:#F7941D;stroke-miterlimit:10;}
	.st3{fill:#414042;stroke:#414042;stroke-miterlimit:10;}
	.st4{fill:#E6E7E8;stroke:#E6E7E8;stroke-miterlimit:10;}
	.st5{fill:#8DC63F;}
	.st6{display:inline;fill:#808285;}
	.st7{display:inline;fill:#D1D3D4;}
	.st8{display:inline;fill:#E6E7E8;}
	.st9{display:inline;stroke:#58595B;stroke-width:3;stroke-miterlimit:10;}
</style>
<g id="Layer_1" class="st0">
</g>
<g id="Layer_2">
	<path class="st1" d="M236.8,130.1l31.27,220.96c0.86,6.09-1.62,9.29-5.57,7.11l-159.63-88.14c-3.94-2.18-7.84-8.89-8.7-14.99
		L62.91,34.08c-0.86-6.11,1.63-9.29,5.57-7.12l159.63,88.14C232.05,117.28,235.94,123.99,236.8,130.1z"/>
	<circle class="st1" cx="262.18" cy="260.17" r="180.15"/>
	<polyline class="st1" points="322.69,89.73 240.72,118.71 227.09,185.19 291.29,252.23 381.07,228.94 427.09,271.55 441.79,229.96 
		416.86,110.19 	"/>
	<polygon class="st1" points="193.27,93.69 199.52,112.46 126.22,186.32 114.29,237.46 87.57,208.33 101.22,119.85 187.43,96.21 	
		"/>
	<path d="M293.62,130.1l-31.27,220.96c-0.86,6.09,1.62,9.29,5.57,7.11l159.63-88.14c3.94-2.18,7.84-8.89,8.7-14.99l31.27-220.96
		c0.86-6.11-1.63-9.29-5.57-7.12L302.32,115.1C298.38,117.28,294.49,123.99,293.62,130.1z"/>
	<polyline class="st1" points="216,385.19 262.18,339.73 313.72,385.19 262.35,351.06 	"/>
	<path class="st1" d="M259.18,348.26"/>
	<polyline class="st1" points="262.18,310.26 246.68,293.78 276.5,294.78 	"/>
	<rect x="260.18" y="295.07" class="st1" width="3.17" height="55.99"/>
	<ellipse class="st1" cx="192.42" cy="226.94" rx="40.62" ry="34.38"/>
	<ellipse class="st1" cx="192.42" cy="228.78" rx="36.65" ry="32.53"/>
	<ellipse class="st1" cx="185.88" cy="201.37" rx="42.61" ry="8.81"/>
	<ellipse class="st1" cx="194.97" cy="230.93" rx="14.2" ry="26.99"/>
	<ellipse class="st1" cx="335.6" cy="230.93" rx="40.62" ry="34.38"/>
	<ellipse class="st1" cx="335.6" cy="232.77" rx="36.65" ry="32.53"/>
	<ellipse class="st1" cx="340.57" cy="203.37" rx="42.61" ry="8.81"/>
	<ellipse class="st1" cx="335.16" cy="234.92" rx="14.2" ry="26.99"/>
	<polyline class="st1" points="311.41,298.32 514.25,298.32 311.41,305.71 	"/>
	<polyline class="st1" points="311.81,312.94 514.28,325.13 311.37,320.32 	"/>
	<polyline class="st0" points="171.47,260.52 374.31,260.52 171.47,267.9 	"/>
	<polyline class="st0" points="171.87,275.14 374.35,287.32 171.43,282.51 	"/>
	<polyline class="st1" points="215.96,296.85 13.12,296.85 215.96,304.24 	"/>
	<polyline class="st1" points="215.55,311.47 13.08,323.66 216,318.85 	"/>
	<path class="st2" d="M230.62,125.93l31.27,220.96c0.86,6.09-1.62,9.29-5.57,7.11L96.7,265.86c-3.94-2.18-7.84-8.89-8.7-14.99
		L56.73,29.91c-0.86-6.11,1.63-9.29,5.57-7.12l159.63,88.14C225.87,113.11,229.76,119.83,230.62,125.93z"/>
	<path class="st3" d="M287.44,125.93l-31.27,220.96c-0.86,6.09,1.62,9.29,5.57,7.11l159.63-88.14c3.94-2.18,7.84-8.89,8.7-14.99
		l31.27-220.96c0.86-6.11-1.63-9.29-5.57-7.12l-159.63,88.14C292.2,113.11,288.31,119.83,287.44,125.93z"/>
	<circle class="st4" cx="270.32" cy="261.14" r="180.15"/>
	<polyline class="st3" points="316.51,85.57 234.55,114.55 220.91,181.02 285.11,248.07 374.89,224.77 420.91,267.39 435.61,225.79 
		410.68,106.02 	"/>
	<polygon class="st2" points="187.09,89.52 193.34,108.3 120.05,182.16 108.11,233.3 81.39,204.16 95.05,115.68 181.25,92.05 	"/>
	<polyline class="st3" points="209.82,381.02 256,335.57 307.55,381.02 256.17,346.89 	"/>
	<path class="st3" d="M253,344.09"/>
	<polyline class="st3" points="256,306.09 240.5,289.61 270.32,290.61 	"/>
	<rect x="254" y="290.9" class="st3" width="3.17" height="55.99"/>
	<ellipse cx="186.24" cy="222.77" rx="40.62" ry="34.38"/>
	<ellipse class="st5" cx="186.24" cy="224.62" rx="36.65" ry="32.53"/>
	<ellipse cx="187.7" cy="196.21" rx="42.61" ry="8.81"/>
	<ellipse cx="188.8" cy="226.76" rx="14.2" ry="26.99"/>
	<ellipse cx="329.42" cy="226.76" rx="40.62" ry="34.38"/>
	<ellipse class="st5" cx="329.42" cy="228.61" rx="36.65" ry="32.53"/>
	<ellipse cx="332.89" cy="197.25" rx="42.61" ry="8.81"/>
	<ellipse cx="328.98" cy="230.75" rx="14.2" ry="26.99"/>
	<polyline points="305.23,294.16 508.07,294.16 305.23,301.55 	"/>
	<polyline points="305.63,308.78 508.11,320.96 305.19,316.15 	"/>
	<polyline class="st0" points="154.42,242.34 357.26,242.34 154.42,249.72 	"/>
	<polyline class="st0" points="154.83,256.95 357.3,269.14 154.38,264.33 	"/>
	<polyline points="209.78,292.69 6.94,292.69 209.78,300.08 	"/>
	<polyline points="209.37,307.31 6.9,319.49 209.82,314.68 	"/>
</g>
<g id="Layer_3" class="st0">
	<circle class="st6" cx="277.26" cy="267.38" r="180.15"/>
	<ellipse class="st6" cx="270.97" cy="393.6" rx="69.46" ry="113.35"/>
	<ellipse class="st6" cx="163.92" cy="374.83" rx="65.91" ry="113.35"/>
	<ellipse class="st6" cx="391.5" cy="377.41" rx="65.91" ry="113.35"/>
	<ellipse class="st6" cx="396.32" cy="321.42" rx="65.91" ry="113.35"/>
	<ellipse class="st6" cx="160.52" cy="316.3" rx="65.91" ry="113.35"/>
	<ellipse class="st7" cx="264.03" cy="388.12" rx="69.46" ry="113.35"/>
	<ellipse class="st7" cx="156.98" cy="369.35" rx="65.91" ry="113.35"/>
	<ellipse class="st7" cx="381.28" cy="376.93" rx="69.19" ry="113.35"/>
	<ellipse class="st8" cx="383.69" cy="337.86" rx="71.6" ry="129.27"/>
	<circle class="st8" cx="270.32" cy="261.9" r="180.15"/>
	<ellipse class="st8" cx="157.05" cy="331.3" rx="69.38" ry="133.82"/>
	<ellipse class="st9" cx="202.01" cy="210.85" rx="35.51" ry="58.81"/>
	<ellipse class="st9" cx="334.49" cy="210.85" rx="35.51" ry="58.81"/>
	<ellipse class="st9" cx="271.32" cy="348.35" rx="25.57" ry="23.58"/>
</g>
</svg>
